<mxfile host="www.draw.io" modified="2019-10-17T07:28:41.189Z" agent="Mozilla/5.0 (Windows NT 10.0; Win64; x64) AppleWebKit/537.36 (KHTML, like Gecko) Chrome/77.0.3865.120 Safari/537.36" etag="9eaYfiFsMeLTmUuRgQNS" version="12.1.2" type="github" pages="1">
  <diagram id="v0aDKgJK21_tez0SBdlP" name="Page-1">
    <mxGraphModel dx="1302" dy="847" grid="1" gridSize="10" guides="1" tooltips="1" connect="1" arrows="1" fold="1" page="1" pageScale="1" pageWidth="827" pageHeight="1169" math="0" shadow="0">
      <root>
        <mxCell id="0"/>
        <mxCell id="1" parent="0"/>
        <mxCell id="4lSk_yB9vL9-ZRo8prOx-1" value="matlab" style="rounded=1;whiteSpace=wrap;html=1;fillColor=#ffe6cc;strokeColor=#d79b00;" vertex="1" parent="1">
          <mxGeometry x="90" y="220" width="120" height="60" as="geometry"/>
        </mxCell>
        <mxCell id="4lSk_yB9vL9-ZRo8prOx-2" value="gui" style="rounded=1;whiteSpace=wrap;html=1;fillColor=#ffe6cc;strokeColor=#d79b00;" vertex="1" parent="1">
          <mxGeometry x="90" y="320" width="120" height="60" as="geometry"/>
        </mxCell>
        <mxCell id="4lSk_yB9vL9-ZRo8prOx-3" value="培训" style="rounded=1;whiteSpace=wrap;html=1;fillColor=#ffe6cc;strokeColor=#d79b00;" vertex="1" parent="1">
          <mxGeometry x="290" y="210" width="120" height="60" as="geometry"/>
        </mxCell>
        <mxCell id="4lSk_yB9vL9-ZRo8prOx-4" value="视频教程" style="rounded=1;whiteSpace=wrap;html=1;fillColor=#ffe6cc;strokeColor=#d79b00;" vertex="1" parent="1">
          <mxGeometry x="290" y="300" width="120" height="60" as="geometry"/>
        </mxCell>
        <mxCell id="4lSk_yB9vL9-ZRo8prOx-6" value="书籍" style="rounded=1;whiteSpace=wrap;html=1;fillColor=#ffe6cc;strokeColor=#d79b00;" vertex="1" parent="1">
          <mxGeometry x="290" y="390" width="120" height="60" as="geometry"/>
        </mxCell>
      </root>
    </mxGraphModel>
  </diagram>
</mxfile>
